<svg width="190" height="171" viewBox="0 0 190 171" fill="none" xmlns="http://www.w3.org/2000/svg">
<path d="M188.922 10.9955L169.22 162.297C168.646 166.704 164.903 170 160.473 170H132.357C119.785 170 108.293 162.874 102.672 151.592L95 136.199L78.1555 102.402L49.3293 44.5558C48.1189 42.127 44.4664 42.9891 44.4664 45.7062L68.6744 159.3C69.8476 164.809 65.6631 170 60.05 170H9.82238C4.49662 170 0.386574 165.303 1.07557 160.004L20.7772 8.70281C21.3518 4.29625 25.0947 1 29.524 1H57.6425C70.2147 1 81.7069 8.1263 87.3279 19.4083L111.845 68.6011L128.689 102.402L140.668 126.444C141.878 128.876 145.531 128.011 145.531 125.294L113.661 12.2579C112.068 6.61029 116.298 1 122.148 1H180.178C185.503 1 189.613 5.69748 188.924 10.9955H188.922Z" fill="white" stroke="#E27113" stroke-width="0.313525" stroke-miterlimit="10"/>
</svg>
