<svg width="153" height="39" viewBox="0 0 153 39" fill="none" xmlns="http://www.w3.org/2000/svg">
<path d="M42.0952 2.49938L37.7111 36.1287C37.5832 37.1082 36.7503 37.8408 35.7647 37.8408H29.5081C26.7105 37.8408 24.1531 36.2569 22.9023 33.7493L21.1951 30.3281L17.4467 22.8159L11.0321 9.95873C10.7627 9.41889 9.94995 9.6105 9.94995 10.2144L15.3369 35.4625C15.598 36.687 14.6668 37.8408 13.4177 37.8408H2.24069C1.05556 37.8408 0.140962 36.7967 0.294283 35.6192L4.67843 1.98979C4.8063 1.01036 5.6392 0.27771 6.62484 0.27771H12.882C15.6796 0.27771 18.237 1.86165 19.4878 4.36926L24.9434 15.3032L28.6918 22.8159L31.3575 28.1598C31.6268 28.7002 32.4396 28.508 32.4396 27.9041L25.3477 2.77998C24.9932 1.52469 25.9344 0.27771 27.2361 0.27771H40.1494C41.3346 0.27771 42.2491 1.32181 42.0958 2.49938H42.0952Z" fill="white" stroke="#E27113" stroke-width="0.313525" stroke-miterlimit="10"/>
<path d="M117.847 2.49938L113.463 36.1287C113.335 37.1082 112.502 37.8408 111.516 37.8408H105.26C102.462 37.8408 99.9048 36.2569 98.654 33.7493L96.9468 30.3281L93.1984 22.8159L86.7838 9.95873C86.5144 9.41889 85.7017 9.6105 85.7017 10.2144L91.0886 35.4625C91.3497 36.687 90.4185 37.8408 89.1694 37.8408H77.9924C76.8073 37.8408 75.8927 36.7967 76.046 35.6192L80.4301 1.98979C80.558 1.01036 81.3909 0.27771 82.3765 0.27771H88.6337C91.4313 0.27771 93.9887 1.86165 95.2395 4.36926L100.695 15.3032L104.444 22.8159L107.109 28.1598C107.378 28.7002 108.191 28.508 108.191 27.9041L101.099 2.78057C100.744 1.52529 101.686 0.278303 102.987 0.278303H115.901C117.086 0.278303 118 1.3224 117.847 2.49997V2.49938Z" fill="white" stroke="#E27113" stroke-width="0.313525" stroke-miterlimit="10"/>
<path d="M151.243 0.28009H123.918C123.115 0.28009 122.419 1.01274 122.293 1.99217L117.962 35.6215C117.811 36.7991 118.533 37.8432 119.499 37.8432H146.823C147.626 37.8432 148.322 37.1106 148.448 36.1311L152.779 2.50176C152.93 1.32419 152.208 0.28009 151.243 0.28009ZM140.756 7.12248L137.297 31.3686C137.196 32.0746 136.976 32.6032 136.782 32.6032H130.195C129.962 32.6032 129.863 31.8503 129.984 31.0014L133.444 6.75526C133.544 6.04931 133.765 5.52074 133.958 5.52074H140.546C140.778 5.52074 140.878 6.27355 140.756 7.12248Z" fill="white"/>
<path d="M74.7591 37.0097L66.8509 0.906552C66.7822 0.59273 66.5046 0.36908 66.1838 0.36908H54.3858H46.1496C45.8104 0.36908 45.5227 0.618832 45.4736 0.955197L40.2311 37.0584C40.1713 37.4713 40.4904 37.8414 40.9071 37.8414H48.3536C48.6928 37.8414 48.9805 37.5917 49.0296 37.2553L49.7405 32.3534L49.9945 32.3659H60.4268L61.5084 37.3034C61.577 37.6172 61.8547 37.8408 62.1755 37.8408H74.0919C74.5282 37.8408 74.8526 37.4369 74.7591 37.0097ZM50.091 29.9461L53.2817 7.9714C53.4273 6.96824 54.8528 6.91722 55.0695 7.90733L59.5513 28.3675L50.091 29.9461Z" fill="white"/>
</svg>
